<?xml version="1.0" encoding="UTF-8" standalone="no"?>
<!-- Created with Inkscape (http://www.inkscape.org/) -->

<svg
   xmlns:dc="http://purl.org/dc/elements/1.1/"
   xmlns:cc="http://creativecommons.org/ns#"
   xmlns:rdf="http://www.w3.org/1999/02/22-rdf-syntax-ns#"
   xmlns:svg="http://www.w3.org/2000/svg"
   xmlns="http://www.w3.org/2000/svg"
   xmlns:sodipodi="http://sodipodi.sourceforge.net/DTD/sodipodi-0.dtd"
   xmlns:inkscape="http://www.inkscape.org/namespaces/inkscape"
   width="1920"
   height="1080"
   id="svg3336"
   version="1.1"
   inkscape:version="0.91 r13725"
   viewBox="0 0 1920 1080"
   sodipodi:docname="bed and stuff.svg"
   inkscape:export-filename="C:\Users\Faend\Desktop\mobila.png"
   inkscape:export-xdpi="100.95"
   inkscape:export-ydpi="100.95">
  <defs
     id="defs3338" />
  <sodipodi:namedview
     id="base"
     pagecolor="#ffffff"
     bordercolor="#666666"
     borderopacity="1.0"
     inkscape:pageopacity="0.0"
     inkscape:pageshadow="2"
     inkscape:zoom="1"
     inkscape:cx="968.20012"
     inkscape:cy="532.99564"
     inkscape:document-units="px"
     inkscape:current-layer="layer1"
     showgrid="false"
     inkscape:window-width="1366"
     inkscape:window-height="705"
     inkscape:window-x="-8"
     inkscape:window-y="-8"
     inkscape:window-maximized="1" />
  <metadata
     id="metadata3341">
    <rdf:RDF>
      <cc:Work
         rdf:about="">
        <dc:format>image/svg+xml</dc:format>
        <dc:type
           rdf:resource="http://purl.org/dc/dcmitype/StillImage" />
        <dc:title></dc:title>
      </cc:Work>
    </rdf:RDF>
  </metadata>
  <g
     id="layer1"
     inkscape:label="Layer 1"
     inkscape:groupmode="layer">
    <path
       style="fill:#c0b9af;fill-opacity:1"
       d="m 253.51165,692.85901 c 168.32295,8.33979 301.15164,26.01165 502.01613,4.71405 7.50034,-0.34604 14.14216,1.33054 14.14216,8.83884 l 0,20.03469 c 0,7.5083 -6.04459,13.5529 -13.5529,13.5529 -168.29225,21.16016 -334.42222,11.07655 -502.60539,0 -7.49207,-0.49343 -13.55289,-6.0446 -13.55289,-13.5529 l 0,-20.03469 c 0,-7.5083 6.04459,-13.55289 13.55289,-13.55289 z"
       id="rect4160"
       inkscape:connector-curvature="0"
       sodipodi:nodetypes="ccssccssc" />
    <path
       style="fill:#382114;fill-opacity:1"
       d="m 242.0541,599.79164 0.55409,133.75 c 160.02712,14.28615 347.06393,13.94062 527.85961,-0.20833 l 0,35 -2.5562,51.46712 -6.59997,0.0928 -7.96657,-51.55987 c -164.61063,14.31096 -351.93622,11.62506 -511.47565,0 -0.14933,20.0628 -0.0402,23.93024 -2.48665,52.06117 l -4.53178,0.43883 c -2.55805,-28.99219 -3.17184,-57.98592 -3.3416,-87.07894 l -4.33405,-133.31686 c 3.11264,-3.4584 11.76614,-3.50647 14.87877,-0.64587 z"
       id="rect3355"
       inkscape:connector-curvature="0"
       sodipodi:nodetypes="cccccccccccccc" />
    <path
       style="fill:#edeae7;fill-opacity:1"
       d="m 268.37677,658.58237 c 6.79922,-6.92473 75.9553,8.94178 84.43111,14.04962 6.51038,3.79096 12.07853,8.31608 15.55321,14.4723 0.6012,7.01132 -8.62466,7.99626 -13.51388,11.64061 l -91.22394,-4.14676 c -9.05,-5.71746 -13.08903,-12.05908 -13.27803,-18.88021 2.67109,-9.46442 11.61221,-11.88311 18.03153,-17.13556 z"
       id="rect4162"
       inkscape:connector-curvature="0"
       sodipodi:nodetypes="ccccccc" />
    <path
       sodipodi:nodetypes="ccccc"
       inkscape:connector-curvature="0"
       id="path4188"
       d="m 997.73642,575.30253 -8.22884,0 2.84271,13.25826 6.73267,0.14731 z"
       style="fill:#202221;fill-opacity:1" />
    <path
       style="fill:#202221;fill-opacity:1"
       d="m 887.86096,575.15521 8.10227,0 -2.79897,13.25826 -6.62913,0.14731 z"
       id="rect4185"
       inkscape:connector-curvature="0"
       sodipodi:nodetypes="ccccc" />
    <rect
       style="fill:#3c1404;fill-opacity:1"
       id="rect4181"
       width="139.80086"
       height="6.7764392"
       x="873.57147"
       y="569.11536"
       ry="2.2097113" />
    <rect
       style="fill:#382114;fill-opacity:1"
       id="rect4177"
       width="170.88419"
       height="116.96724"
       x="857.07233"
       y="455.68362"
       ry="13.5529" />
    <rect
       style="fill:#b3b3b3;fill-opacity:1"
       id="rect4179"
       width="158.5098"
       height="106.94994"
       x="862.9649"
       y="461.57617"
       ry="11.490492" />
    <rect
       style="fill:#1a1a1a;fill-opacity:1"
       id="rect4190"
       width="110.83337"
       height="94.196274"
       x="870"
       y="467.08334"
       ry="11.861506" />
    <g
       id="g4204">
      <circle
         style="fill:#a7a7a7;fill-opacity:1"
         id="circle4200"
         cx="1003.3027"
         cy="481.6972"
         r="9.6160116" />
    </g>
    <circle
       style="fill:#3a3a3a;fill-opacity:1"
       id="path4192"
       cx="1003.2292"
       cy="481.77084"
       r="8.4375" />
    <g
       id="g4213"
       transform="translate(0.84073624,20.884365)">
      <circle
         r="9.6160116"
         cy="481.6972"
         cx="1003.3027"
         id="circle4215"
         style="fill:#a7a7a7;fill-opacity:1" />
    </g>
    <circle
       r="8.4375"
       cy="502.60419"
       cx="1004.0625"
       id="circle4194"
       style="fill:#3a3a3a;fill-opacity:1" />
    <circle
       style="fill:#aa4400;fill-opacity:1"
       id="circle4196"
       cx="1003.9888"
       cy="502.67786"
       r="5.712193" />
    <circle
       r="5.712193"
       cy="481.61197"
       cx="1003.3995"
       id="circle4198"
       style="fill:#aa4400;fill-opacity:1" />
    <rect
       style="fill:#a7a7a7;fill-opacity:1"
       id="rect4202"
       width="18.708885"
       height="2.5043459"
       x="1069.7836"
       y="-274.30435"
       ry="0"
       transform="matrix(0.76760218,0.64092659,-0.64092659,0.76760218,0,0)" />
    <rect
       transform="matrix(-0.65065272,0.75937543,-0.75937543,-0.65065272,0,0)"
       ry="0"
       y="-1090.7069"
       x="-281.06091"
       height="2.5043459"
       width="18.708885"
       id="rect4211"
       style="fill:#a7a7a7;fill-opacity:1" />
    <g
       id="g4221"
       transform="translate(1.0311974,-0.14731391)">
      <path
         style="fill:#1a1a1a;fill-opacity:1"
         d="m 990.20831,471.04166 0.90076,-1.42311 0.80537,0.81151 -0.39057,0.64412 -0.27389,86.21748 0.32973,1.80651 -1.19668,0.94529 -0.43514,-1.39763 z"
         id="rect4217"
         inkscape:connector-curvature="0"
         sodipodi:nodetypes="ccccccccc" />
      <path
         style="fill:#1a1a1a;fill-opacity:1"
         d="m 992.70831,468.95834 20.41669,0 1.4323,0.35564 -0.5459,1.46997 -0.2044,-0.31983 -0.682,-0.16463 -20.40628,-0.13599 -0.85242,0.29263 -0.81241,-0.77637 z"
         id="rect4219"
         inkscape:connector-curvature="0"
         sodipodi:nodetypes="cccccccccc" />
    </g>
    <g
       id="g4227"
       transform="matrix(-1.0181798,0,0,-1.0306607,2024.2518,1044.639)">
      <path
         sodipodi:nodetypes="ccccccccc"
         inkscape:connector-curvature="0"
         id="path4229"
         d="m 990.16743,471.08352 0.90076,-1.42311 2.01254,0.73107 -1.09168,0.27323 -0.36143,0.68512 -0.41852,85.98369 -0.55317,1.02331 -0.4885,-1.02331 z"
         style="fill:#1a1a1a;fill-opacity:1" />
      <path
         sodipodi:nodetypes="cccccccc"
         inkscape:connector-curvature="0"
         id="path4231"
         d="m 992.70831,468.95834 20.16089,0 1.5401,1.37946 -1.182,0.93175 -0.9204,-0.7516 -19.51349,-0.1188 -1.73952,-0.7194 z"
         style="fill:#1a1a1a;fill-opacity:1" />
    </g>
    <rect
       style="fill:#1a1a1a;fill-opacity:1"
       id="rect4233"
       width="20.506094"
       height="1.944519"
       x="993.30823"
       y="515.19849"
       ry="0.97225952" />
    <rect
       ry="0.97225952"
       y="518.1153"
       x="993.30823"
       height="1.944519"
       width="20.506094"
       id="rect4235"
       style="fill:#1a1a1a;fill-opacity:1" />
    <rect
       ry="0.97225952"
       y="521.20892"
       x="993.30823"
       height="1.944519"
       width="20.506094"
       id="rect4237"
       style="fill:#1a1a1a;fill-opacity:1" />
    <rect
       style="fill:#1a1a1a;fill-opacity:1"
       id="rect4239"
       width="20.506094"
       height="1.944519"
       x="993.30823"
       y="524.12573"
       ry="0.97225952" />
    <rect
       ry="0.97225952"
       y="527.04254"
       x="993.30823"
       height="1.944519"
       width="20.506094"
       id="rect4241"
       style="fill:#1a1a1a;fill-opacity:1" />
    <rect
       style="fill:#1a1a1a;fill-opacity:1"
       id="rect4243"
       width="20.506094"
       height="1.944519"
       x="993.30823"
       y="529.95935"
       ry="0.97225952" />
    <rect
       style="fill:#1a1a1a;fill-opacity:1"
       id="rect4245"
       width="20.506094"
       height="1.944519"
       x="993.30823"
       y="533.05298"
       ry="0.97225952" />
    <rect
       ry="0.97225952"
       y="535.96979"
       x="993.30823"
       height="1.944519"
       width="20.506094"
       id="rect4247"
       style="fill:#1a1a1a;fill-opacity:1" />
    <rect
       ry="0.97225952"
       y="538.82349"
       x="993.30823"
       height="1.944519"
       width="20.506094"
       id="rect4249"
       style="fill:#1a1a1a;fill-opacity:1" />
    <rect
       style="fill:#1a1a1a;fill-opacity:1"
       id="rect4251"
       width="20.506094"
       height="1.944519"
       x="993.30823"
       y="541.7403"
       ry="0.97225952" />
    <rect
       style="fill:#1a1a1a;fill-opacity:1"
       id="rect4253"
       width="20.506094"
       height="1.944519"
       x="993.30823"
       y="544.83392"
       ry="0.97225952" />
    <rect
       ry="0.97225952"
       y="547.75073"
       x="993.30823"
       height="1.944519"
       width="20.506094"
       id="rect4255"
       style="fill:#1a1a1a;fill-opacity:1" />
    <rect
       style="fill:#1a1a1a;fill-opacity:1"
       id="rect4257"
       width="20.506094"
       height="1.944519"
       x="993.30823"
       y="550.66754"
       ry="0.97225952" />
    <rect
       ry="0.97225952"
       y="553.58435"
       x="993.30823"
       height="1.944519"
       width="20.506094"
       id="rect4259"
       style="fill:#1a1a1a;fill-opacity:1" />
    <rect
       ry="0.97225952"
       y="556.67798"
       x="993.30823"
       height="1.944519"
       width="20.506094"
       id="rect4261"
       style="fill:#1a1a1a;fill-opacity:1" />
  </g>
</svg>
