<?xml version="1.0" encoding="UTF-8" standalone="no"?>
<!-- Created with Inkscape (http://www.inkscape.org/) -->

<svg
   xmlns:dc="http://purl.org/dc/elements/1.1/"
   xmlns:cc="http://creativecommons.org/ns#"
   xmlns:rdf="http://www.w3.org/1999/02/22-rdf-syntax-ns#"
   xmlns:svg="http://www.w3.org/2000/svg"
   xmlns="http://www.w3.org/2000/svg"
   xmlns:sodipodi="http://sodipodi.sourceforge.net/DTD/sodipodi-0.dtd"
   xmlns:inkscape="http://www.inkscape.org/namespaces/inkscape"
   width="1920"
   height="1080"
   id="svg4136"
   version="1.1"
   inkscape:version="0.91 r13725"
   viewBox="0 0 1920 1080"
   sodipodi:docname="drawing.svg"
   inkscape:export-filename="C:\Users\cpitorac\Desktop\drawing.png"
   inkscape:export-xdpi="90"
   inkscape:export-ydpi="90">
  <defs
     id="defs4138" />
  <sodipodi:namedview
     id="base"
     pagecolor="#ffffff"
     bordercolor="#666666"
     borderopacity="1.0"
     inkscape:pageopacity="0.0"
     inkscape:pageshadow="2"
     inkscape:zoom="0.84852814"
     inkscape:cx="923.27979"
     inkscape:cy="474.6758"
     inkscape:document-units="px"
     inkscape:current-layer="layer1"
     showgrid="false"
     inkscape:window-width="1920"
     inkscape:window-height="1017"
     inkscape:window-x="-8"
     inkscape:window-y="-8"
     inkscape:window-maximized="1" />
  <metadata
     id="metadata4141">
    <rdf:RDF>
      <cc:Work
         rdf:about="">
        <dc:format>image/svg+xml</dc:format>
        <dc:type
           rdf:resource="http://purl.org/dc/dcmitype/StillImage" />
        <dc:title></dc:title>
      </cc:Work>
    </rdf:RDF>
  </metadata>
  <g
     id="layer1"
     inkscape:label="Layer 1"
     inkscape:groupmode="layer">
    <path
       style="opacity:1;fill:#757575;fill-opacity:1"
       d="m 224.6413,307.69198 c 0.95869,-7.88729 2.13881,-29.16532 5.5663,-36.55885 20.82083,0.22094 37.95064,7.00148 58.43771,10.62596 l 22.2978,1.71722 52.22272,24.16667 523.0842,2.35702 27.06954,-14.57818 35.56341,-15.57395 259.86382,1.8538 28.904,-6.892 40.0583,-0.18778 8.9547,-5.829 5.3706,0.14003 4.0488,6.09054 -0.1346,5.92381 -1.9379,1.88858 c 0.3728,34.49361 6.8917,22.22427 13.4531,53.7864 6.1384,-1.79827 35.1246,19.73992 37.5757,55.22678 21.7094,1.2169 27.2737,-24.82238 83.8771,-21.46522 8.1046,-0.72559 22.5708,20.23343 -3.2965,28.10068 0,0 -105.2854,3.36788 -80.714,82.90185 2.2285,13.37114 13.3681,24.39736 29.9501,32.10231 23.8227,8.86618 45.6192,4.07223 53.6824,16.87827 8.3591,9.87626 6.6659,31.35635 5.635,42.56557 -2.78,76.28646 35.3345,82.64808 55.8595,137.73853 7.0711,84.288 86.8066,190.65126 69.8191,299.58758 -131.9268,27.4766 -270.522,27.6057 -319.505,5.0376 -19.1337,-131.46721 10.7825,-290.22584 -40.3407,-318.06868 l -30.0356,-9.38847 c 3.728,26.27824 -204.91715,49.40887 -205.70191,-94.6382 l -30.55383,-4.91029 c -16.2231,-9.36641 -46.36857,-26.54823 -46.53157,-46.62384 l -609.48139,1.56556 c -30.04125,-2.55916 -48.97412,-19.47811 -54.20527,-43.33261 l -4.81831,-63.38471 c -7.19081,0.1631 -8.96797,-80.90811 -1.728,-80.60692 l -0.0728,-11.59165 c -2.73003,-5.85244 1.73537,-30.70937 1.73537,-30.70937 1.43155,-3.39381 2.88599,-4.48583 6.02816,-5.91504 z"
       id="rect4684"
       inkscape:connector-curvature="0"
       sodipodi:nodetypes="ccccccccccccccccccccccccccccccccccccccc" />
    <path
       transform="matrix(0.9422428,0.33493061,-0.37755723,0.92598625,0,0)"
       style="opacity:1;fill:#ffffff"
       d="m 1326.4955,225.55655 c 12.1085,36.60531 -40.3384,68.85589 -90.0984,68.8559 -49.76,-10e-6 -89.1006,-30.7954 -90.0984,-68.8559 -0.5414,-20.65067 80.5956,-47.15407 123.3684,-38.8903 38.4872,7.43578 56.8284,38.8903 56.8284,38.8903 z"
       id="path4687"
       inkscape:connector-curvature="0"
       sodipodi:nodetypes="sssss" />
    <path
       style="opacity:1;fill:#6d6d6d;fill-opacity:1"
       d="m 216.63415,355.83334 670.03292,0 c -3.89207,7.09477 -5.89256,11.56513 -5.89256,29.58333 l -668.52726,0 c 1.1149,-10.2461 -0.20433,-23.18955 4.3869,-29.58333 z"
       id="rect4689"
       inkscape:connector-curvature="0"
       sodipodi:nodetypes="ccccc" />
    <path
       style="opacity:1;fill:#636363;fill-opacity:1"
       d="m 212.83651,406.66669 668.54511,0 c 0,14.67947 0.66555,23.11044 5.59793,29.58333 l -667.85228,0 c -5.55316,-2.12719 -4.19902,-19.71063 -6.29076,-29.58333 z"
       id="rect4691"
       inkscape:connector-curvature="0"
       sodipodi:nodetypes="ccccc" />
    <path
       style="opacity:1;fill:#6d6d6d;fill-opacity:1"
       d="m 887.18748,463.33334 0,29.58333 -664.27081,0 c 246.84224,-10.74113 286.23926,-21.91943 286.23926,-21.91943 0,0 258.15772,-8.0661 378.03155,-7.6639 z"
       id="rect4693"
       inkscape:connector-curvature="0"
       sodipodi:nodetypes="ccccc" />
    <path
       transform="matrix(0.99996777,-0.00802863,0,1,0,0)"
       style="opacity:1;fill:#636363;fill-opacity:1"
       d="m 363.18761,516.42364 524.2368,-0.1322 0,29.40512 -622.852,-0.8641 c -19.06097,-13.91666 75.02138,-9.27598 98.6152,-28.40882 z"
       id="rect4695"
       inkscape:connector-curvature="0"
       sodipodi:nodetypes="ccccc" />
    <path
       style="opacity:1;fill:#b2b2b2;fill-opacity:1"
       d="m 218.72997,436.25 668.30409,0 0,6.25 -667.71594,0 z"
       id="rect4697"
       inkscape:connector-curvature="0"
       sodipodi:nodetypes="ccccc" />
    <path
       style="opacity:1;fill:#b2b2b2;fill-opacity:1"
       d="m 250.41667,535.41669 636.97917,0 0,6.24999 -610.52083,1.25 c -14.85047,-0.89172 -19.43833,-4.52014 -26.45834,-7.49999 z"
       id="rect4699"
       inkscape:connector-curvature="0"
       sodipodi:nodetypes="ccccc" />
    <path
       style="opacity:1;fill:#999999;fill-opacity:1"
       d="m 216.96819,349.34363 671.81574,0 -2.06239,6.24999 -669.75335,0 z"
       id="rect4701"
       inkscape:connector-curvature="0"
       sodipodi:nodetypes="ccccc" />
    <path
       style="opacity:1;fill:#b2b2b2;fill-opacity:1"
       d="m 224.59168,307.8011 661.60595,2.27072 c 20.16848,-12.63214 41.43081,-21.43577 62.68277,-30.27574 l 259.9555,1.88223 -251.84047,1.26469 -8.19813,1.92732 -60.308,31.24317 -670.34261,0.29463 c 0.29168,-3.2748 1.14416,-6.48818 6.44499,-8.60702 z"
       id="rect4709"
       inkscape:connector-curvature="0"
       sodipodi:nodetypes="ccccccccc" />
    <path
       sodipodi:nodetypes="ccccccc"
       inkscape:connector-curvature="0"
       id="path4712"
       d="m 216.03076,335.80283 686.16542,-16.05135 c -6.30824,9.86111 -11.33022,19.72222 -13.33333,29.58333 l -671.9061,-0.0737 -0.0776,-4.96079 c -0.86814,-1.7807 -0.9207,-5.6219 -0.84841,-8.49753 z"
       style="opacity:1;fill:#636363;fill-opacity:1" />
    <path
       style="opacity:1;fill:#483e37;fill-opacity:1"
       d="m 1170.7795,684.31758 14.3369,-55.85481 c 66.7075,-64.26308 139.5623,-9.06709 180.0298,-101.04041 l 50.5852,10.20034 c 12.0515,28.99404 -7.2578,52.71185 -0.2178,75.6362 12.4069,48.29613 44.3905,61.3087 58.0329,100.29049 2.5965,100.04066 79.615,172.63954 69.1667,284.02635 -84.9236,16.18386 -204.0787,23.28836 -304.4307,2.0032 -4.0821,-38.49499 -5.0434,-59.62306 -5.0529,-96.51463 -0.027,-106.81653 18.381,-221.44963 -62.4501,-218.74673 z"
       id="rect4716"
       inkscape:connector-curvature="0"
       sodipodi:nodetypes="ccccccccsc" />
    <path
       style="opacity:0.159;fill:#e6e6e6;fill-opacity:1"
       d="m 218.16757,312.78915 151.39858,3.33333 -49.48524,42.51786 c 23.20958,21.00257 55.09496,36.41733 124.23206,27.83945 -34.67339,7.29407 -54.18684,19.29295 -66.13523,33.6396 54.17322,9.56153 65.08794,13.71574 90.56144,19.68979 -45.74042,-4.84263 -54.85888,40.0316 -15.07615,52.45491 14.00345,6.1579 31.72058,18.75085 81.30733,17.11866 -2.73257,8.53048 21.87455,28.43986 99.95261,29.9752 l -374.2554,-0.29463 c -25.85188,-7.33999 -31.99454,-23.43963 -38.346,-39.44647 l -3.4925,-62.54454 c -6.62494,-5.71559 -10.3066,-73.15786 -0.43462,-81.65597 -3.4958,-12.84099 -2.21327,-27.59332 -0.22688,-42.62719 z"
       id="rect4719"
       inkscape:connector-curvature="0"
       sodipodi:nodetypes="cccccccccccccc" />
    <path
       style="opacity:0.278;fill:#e6e6e6;fill-opacity:1"
       d="m 229.79167,270.625 c 16.12525,0.77741 20.03391,9.67135 33.95833,13.75 1.06943,25.6872 57.62221,17.18626 69.375,23.54167 l -108.54166,0 c 1.32407,-12.43056 1.34938,-24.86111 5.20833,-37.29167 z"
       id="rect4722"
       inkscape:connector-curvature="0"
       sodipodi:nodetypes="ccccc" />
    <path
       style="opacity:1;fill:#999999;fill-opacity:1"
       d="m 954.08482,332.44606 248.03078,0 c 60.1901,27.21774 62.3112,168.67274 0,190.87615 l -248.03078,1.21192 z"
       id="rect4726"
       inkscape:connector-curvature="0"
       sodipodi:nodetypes="ccccc" />
    <path
       style="opacity:1;fill:#808080;fill-opacity:1"
       d="m 954.67812,368.28036 232.17788,0 c 9.1543,10.54864 14.4414,21.29109 0,33.02226 l -232.17788,0 z"
       id="rect4729"
       inkscape:connector-curvature="0"
       sodipodi:nodetypes="ccccc" />
    <path
       style="opacity:1;fill:#808080;fill-opacity:1"
       d="m 954.67812,430.14206 232.17788,0 c 14.7794,11.34072 11.6449,22.27744 0,33.02226 l -232.17788,0 z"
       id="rect4731"
       inkscape:connector-curvature="0"
       sodipodi:nodetypes="ccccc" />
    <path
       style="opacity:1;fill:#808080;fill-opacity:1"
       d="m 954.67812,488.41758 232.17788,0 c 7.702,8.9748 16.5023,17.65978 0,33.02226 l -232.17788,0 z"
       id="rect4733"
       inkscape:connector-curvature="0"
       sodipodi:nodetypes="ccccc" />
    <path
       style="opacity:1;fill:#808080;fill-opacity:1"
       d="m 954.67812,333.31505 236.74958,-0.67241 c -0.106,3.20686 -1.1857,6.48595 -4.5717,9.93618 l -232.17788,0 z"
       id="rect4735"
       inkscape:connector-curvature="0"
       sodipodi:nodetypes="ccccc" />
    <path
       style="opacity:1;fill:#8b8b8b;fill-opacity:1"
       d="m 954.00492,375.97136 228.42448,0.63394 c 4.6798,4.46792 7.2775,9.28652 0.3977,15.53189 l -228.82218,0 c 4.62437,-5.38861 5.94207,-10.77722 0,-16.16583 z"
       id="rect4741"
       inkscape:connector-curvature="0"
       sodipodi:nodetypes="ccccc" />
    <path
       sodipodi:nodetypes="ccccc"
       inkscape:connector-curvature="0"
       id="path4744"
       d="m 954.00492,438.7328 228.42448,0.63395 c 4.6798,4.46791 7.2775,9.28651 0.3977,15.53188 l -228.82218,0 c 4.62437,-5.3886 5.94207,-10.77722 0,-16.16583 z"
       style="opacity:1;fill:#8b8b8b;fill-opacity:1" />
    <path
       style="opacity:1;fill:#8b8b8b;fill-opacity:1"
       d="m 954.00492,497.69053 228.42448,0.63395 c 4.6798,4.46791 7.2775,9.28651 0.3977,15.53188 l -228.82218,0 c 4.62437,-5.38861 5.94207,-10.77722 0,-16.16583 z"
       id="path4746"
       inkscape:connector-curvature="0"
       sodipodi:nodetypes="ccccc" />
    <path
       style="opacity:1;fill:#6f6f6f;fill-opacity:1"
       d="m 1201.9323,332.3144 5.1682,2.53581 0,186.52436 -5.1682,2.13959 z"
       id="rect4748"
       inkscape:connector-curvature="0"
       sodipodi:nodetypes="ccccc" />
    <path
       style="opacity:0.14800002;fill:#ffffff;fill-opacity:1"
       d="m 1185.5086,380.17546 c 1.8613,3.03233 2.0518,5.97514 0.026,8.79922 -68.3159,-3.50781 -227.61869,-4.73958 -227.61869,-4.73958 0,0 159.18779,-1.5553 227.59269,-4.05964 z"
       id="rect4751"
       inkscape:connector-curvature="0"
       sodipodi:nodetypes="cccc" />
    <path
       sodipodi:nodetypes="cccc"
       inkscape:connector-curvature="0"
       id="path4754"
       d="m 1185.5086,443.22581 c 1.8613,3.03233 2.0518,5.97514 0.026,8.79922 -68.3159,-3.50781 -227.61869,-4.73958 -227.61869,-4.73958 0,0 159.18779,-1.5553 227.59269,-4.05964 z"
       style="opacity:0.14800002;fill:#ffffff;fill-opacity:1" />
    <path
       style="opacity:0.14800002;fill:#ffffff;fill-opacity:1"
       d="m 1185.5086,502.15138 c 1.8613,3.03233 2.0518,5.97514 0.026,8.79922 -68.3159,-3.50781 -227.61869,-4.73958 -227.61869,-4.73958 0,0 159.18779,-1.5553 227.59269,-4.05964 z"
       id="path4756"
       inkscape:connector-curvature="0"
       sodipodi:nodetypes="cccc" />
    <path
       style="opacity:0.185;fill:#000000;fill-opacity:1"
       d="m 799.99998,497.08333 c 12.74253,-25.57663 -41.03106,-11.92581 -66.83569,-14.7695 44.38766,-10.97968 87.68517,-29.59039 133.16793,-32.90431 1.02505,-6.64274 -11.43949,-7.88965 -26.92131,-7.92964 16.88986,-2.48349 35.65846,3.74659 47.46406,-5.85488 l 0.625,101.875 -286.24999,0 c 69.298,-12.23491 179.18683,-7.99237 198.75,-40.41667 z"
       id="rect4758"
       inkscape:connector-curvature="0"
       sodipodi:nodetypes="cccccccc" />
    <path
       style="opacity:0.151;fill:#000000;fill-opacity:1"
       d="m 1202.0833,432.08334 5.5755,19.9351 c 23.5444,-1.19787 33.5373,-15.10033 39.4245,-32.85177 3.0571,34.69171 -5.3093,89.24469 -45,104.23816 l -247.81987,1.17851 c 143.56377,-9.19289 163.97697,-61.7941 247.81987,-92.5 z"
       id="rect4761"
       inkscape:connector-curvature="0"
       sodipodi:nodetypes="cccccc" />
    <path
       sodipodi:nodetypes="cccc"
       inkscape:connector-curvature="0"
       id="path4764"
       d="m 954.16663,445.56473 0,-111.82988 249.53707,-1.44318 c -73.8478,66.64741 -176.3091,45.03013 -249.53707,113.27306 z"
       style="opacity:0.107;fill:#ffffff;fill-opacity:1" />
  </g>
</svg>
