<?xml version="1.0" encoding="UTF-8" standalone="no"?>
<!-- Created with Inkscape (http://www.inkscape.org/) -->

<svg
   xmlns:dc="http://purl.org/dc/elements/1.1/"
   xmlns:cc="http://creativecommons.org/ns#"
   xmlns:rdf="http://www.w3.org/1999/02/22-rdf-syntax-ns#"
   xmlns:svg="http://www.w3.org/2000/svg"
   xmlns="http://www.w3.org/2000/svg"
   xmlns:sodipodi="http://sodipodi.sourceforge.net/DTD/sodipodi-0.dtd"
   xmlns:inkscape="http://www.inkscape.org/namespaces/inkscape"
   width="1920"
   height="1080"
   id="svg3347"
   version="1.1"
   inkscape:version="0.91 r13725"
   viewBox="0 0 1920 1080"
   sodipodi:docname="drawing.svg"
   inkscape:export-filename="C:\Users\Faend\Desktop\wip.png"
   inkscape:export-xdpi="80.650002"
   inkscape:export-ydpi="80.650002">
  <defs
     id="defs3349" />
  <sodipodi:namedview
     id="base"
     pagecolor="#ffffff"
     bordercolor="#666666"
     borderopacity="1.0"
     inkscape:pageopacity="0.0"
     inkscape:pageshadow="2"
     inkscape:zoom="0.5"
     inkscape:cx="741.004"
     inkscape:cy="502.06606"
     inkscape:document-units="px"
     inkscape:current-layer="layer1"
     showgrid="false"
     inkscape:window-width="1366"
     inkscape:window-height="705"
     inkscape:window-x="-8"
     inkscape:window-y="-8"
     inkscape:window-maximized="1" />
  <metadata
     id="metadata3352">
    <rdf:RDF>
      <cc:Work
         rdf:about="">
        <dc:format>image/svg+xml</dc:format>
        <dc:type
           rdf:resource="http://purl.org/dc/dcmitype/StillImage" />
        <dc:title></dc:title>
      </cc:Work>
    </rdf:RDF>
  </metadata>
  <g
     id="layer1"
     inkscape:label="Layer 1"
     inkscape:groupmode="layer">
    <path
       style="fill:#75818d;fill-opacity:1"
       d="m 700.25,507 75,-0.75 c 0.1108,2.57293 0.88673,1.59854 0.32322,7.76777 1.77251,-1.08066 3.91659,0.25968 3.91659,0.25968 0.95185,11.86208 1.49615,23.92795 1.0397,36.49418 -0.98626,4.08943 -2.48007,8.30842 -9.54335,13.32362 5.54098,52.06463 -2.94361,63.53216 0.98327,100.57352 0.51983,4.90343 -2.66197,9.6679 -1.5728,12.77383 0.46466,3.67708 1.23668,4.42794 3.67867,7.77547 9.30245,16.11232 2.90233,90.10825 6.56712,111.36128 l -33.26014,5.23677 c 1.65022,-53.00138 -3.82997,-92.48936 -10.1915,-102.52137 -3.34382,-3.03828 -5.67819,-8.20778 -9.67731,-20.42026 -0.87188,-5.86335 -1.52856,-9.44191 3.0977,-17.30341 -14.78353,-30.86888 -23.28579,-81.77715 -25.49736,-111.14177 0,0 -2.69375,-10.25995 -5.11383,-18.17931 -1.85174,-10.54632 0.14729,-15.61279 0.25,-25.25 z"
       id="rect4218"
       inkscape:connector-curvature="0"
       sodipodi:nodetypes="ccccccsccccccccccc" />
    <path
       style="fill:#aa0000"
       d="m 698.41126,497.47375 78.00911,-2.4373 c 1.22076,4.67349 -0.24751,8.65944 0.74192,11.83281 0.16606,0.83517 -1.72022,1.91481 -2.9421,1.77122 -30.96164,-3.63843 -61.32079,9.20521 -75.90601,2.8033 -1.79821,-7.1721 -0.96005,-9.55025 0.0971,-13.97003 z"
       id="rect3382"
       inkscape:connector-curvature="0"
       sodipodi:nodetypes="cccscc" />
    <path
       transform="matrix(0.86381414,-0.50381061,0.52337681,0.85210135,0,0)"
       style="fill:#aa0000"
       inkscape:transform-center-x="36.567596"
       inkscape:transform-center-y="15.583752"
       d="m 469.13452,650.09034 c 12.44273,-1.83529 21.63645,-7.46992 34.5036,-8.11001 0.61772,-0.21651 2.37838,0.89714 3.29267,1.31699 2.11086,3.77777 -0.69823,8.68124 -0.42321,11.92138 -25.81472,8.86889 -52.57847,9.69336 -80.9555,-0.45558 16.75525,-6.35911 30.51323,-2.71399 43.58244,-4.67278 z"
       id="rect3385"
       inkscape:connector-curvature="0"
       sodipodi:nodetypes="cccccc" />
    <path
       style="fill:#800000"
       d="m 739.34078,331.46632 c 15.49924,-9.53933 28.83522,-18.48168 39.41577,-28.59615 4.60438,-2.25275 5.66433,14.72242 5.66433,14.72242 3.87701,11.51153 13.28506,48.56616 -6.04702,96.40451 -3.86536,9.56507 -5.48391,44.55704 -2.69653,63.25778 -0.44237,6.81245 1.44598,16.83101 1.44598,16.83101 0,0 0.13965,1.58759 -0.80736,1.54776 -25.79824,-1.08456 -40.3586,6.58498 -68.04439,5.3976 -1.95835,0.20479 -9.24975,-1.70059 -10.7764,-3.2335 -1.72268,-1.72974 4.54575,-46.37646 -0.3284,-71.57605 -0.46415,-11.11107 -6.39665,-60.65331 13.1925,-82.85843 10.08141,-3.74993 18.23281,-7.46864 28.98152,-11.89695 z"
       id="rect3368"
       inkscape:connector-curvature="0"
       sodipodi:nodetypes="cccsccscsccc" />
    <path
       style="fill:#6a0000;fill-opacity:1"
       d="m 739.3714,331.38287 20.52835,-13.28927 19.08927,-15.44112 c 0,0 1.65715,-0.0266 2.33898,1.29895 2.11163,4.10512 2.62592,7.20287 3.03033,13.62127 3.47535,9.98703 4.55296,18.99316 5.48424,27.93943 1.84872,28.15512 -3.91935,43.49301 -7.33125,56.48789 1.3495,-8.36181 3.5982,-16.86837 2.70936,-25.30861 -4.54526,5.92371 -8.54233,4.28529 -12.63989,2.3929 8.73748,2.97572 17.88813,-13.01401 11.50282,-17.1806 0.53776,-4.98233 -1.07592,-7.81324 -3.34765,-9.98608 0.81315,-1.90485 0.74295,-4.10414 0.14395,-6.4797 -3.90492,-9.85009 -11.25365,-13.24304 -20.48115,-13.11329 -10.43703,0.93631 -13.62596,5.3241 -17.27895,9.49091 3.53596,-5.81351 4.34965,-9.26772 -4.52093,-4.32889 2.51707,-2.42371 6.36771,-4.61209 6.30056,-7.49184 -5.9509,4.03239 -8.52275,3.23758 -12.37179,4.26732 z"
       id="rect4215"
       inkscape:connector-curvature="0"
       sodipodi:nodetypes="cccscccccccccccccc" />
    <path
       style="fill:#f4eed7"
       d="m 743.96127,322.86747 c 13.54435,-9.27505 21.9828,-19.63622 33.45873,-26.92253 0.53484,0.77779 1.38437,3.52445 1.50336,3.83129 -14.64971,9.01195 -19.60914,17.41643 -37.76195,28.32485 -8.29855,4.52842 -19.56283,9.04074 -28.04878,12.31981 0.82009,-0.91193 1.64018,-1.72754 2.46027,-2.49249 3.61582,-3.37271 19.02269,-8.46611 28.38837,-15.06093 z"
       id="rect3388"
       inkscape:connector-curvature="0"
       sodipodi:nodetypes="cccccsc" />
    <path
       style="fill:#f4eed7"
       d="m 729.45031,504.50266 c 16.38785,-2.2687 33.88712,-5.09348 47.477,-5.41342 0.0568,0.94222 -0.0497,2.95615 -0.10612,3.28039 -17.19894,0.16047 -33.55979,4.38778 -54.73802,5.51424 0,0 -18.97282,1.41139 -24.80881,-2.53345 -0.25989,-1.63496 0.0639,-2.88082 0.27917,-4.19898 3.73016,2.88809 20.82646,5.30579 31.89678,3.35122 z"
       id="rect3388-7"
       inkscape:connector-curvature="0"
       sodipodi:nodetypes="ccccccc"
       inkscape:transform-center-x="-37.483638"
       inkscape:transform-center-y="0.28947411" />
    <path
       style="fill:#6a0000;fill-opacity:1"
       d="m 710.5539,459.69058 c 9.85716,12.75505 15.04487,15.54434 21.82553,17.80744 3.25441,1.02878 5.21172,0.76045 7.07746,0.40055 2.26267,6.00257 -1.97768,7.87481 -4.50781,9.54595 l -17.05895,-10.96016 c -2.60541,-5.56237 -6.61518,-10.81266 -7.33623,-16.79378 z"
       id="rect4212"
       inkscape:connector-curvature="0"
       sodipodi:nodetypes="cccccc" />
    <path
       style="fill:#f4eed7"
       d="m 707.39597,462.23347 3.10876,-2.69822 c 2.63434,10.96936 15.94268,24 24.94975,27.80572 l -3.7212,3.625 c -10.02877,-3.93594 -22.05479,-17.46662 -24.33731,-28.7325 z"
       id="rect3406"
       inkscape:connector-curvature="0"
       sodipodi:nodetypes="ccccc" />
    <path
       style="fill:#6a0000;fill-opacity:1"
       d="m 753.83642,451.08883 c 5.90578,-7.64881 14.50942,-7.17766 17.47285,-23.81868 1.24295,-6.97977 5.88082,-14.40595 10.70114,-23.96559 -10.89534,34.73145 -7.42458,52.90038 -6.27597,73.75407 0.29972,5.44151 0.78588,11.10853 1.01556,18.19137 l -41.125,4.25 c 7.69619,-1.3862 16.91595,-2.79464 20.09947,-6.7595 1.80176,-3.34564 -3.46295,-3.86317 -7.5746,-3.12748 2.84456,-1.583 16.44293,-3.87701 17.0873,-7.34589 1.72118,-3.0891 -2.78673,-3.89717 -5.5791,-4.40709 9.95431,-6.20899 12.16887,-11.9828 12.16887,-11.9828 2.74585,-7.81195 -14.26938,-5.85726 -21.41284,-4.71024 7.04435,-5.20474 20.83856,-6.10794 20.3463,-16.96513 -3.02547,3.63763 -9.38698,2.22305 -16.92398,6.88696 z"
       id="rect3409"
       inkscape:connector-curvature="0"
       sodipodi:nodetypes="cscscccccccccc" />
    <path
       style="fill:#7f482c;fill-opacity:1"
       d="m 678.0629,854.94996 c 0.93516,0.0606 1.91247,0.19386 2.36601,-0.57326 l 31.34481,6.59293 35.98788,-5.51317 40.6226,-6.81778 c 0.91279,0.10589 1.77177,0.41845 2.50853,1.20033 -0.30501,6.63541 1.78432,6.99525 1.7659,14.66106 -10.37366,3.84782 -30.76873,5.08772 -34.95441,3.59127 -0.14195,-2.15659 -0.64533,-3.78925 -1.65255,-5.88858 -7.94766,0.12518 -15.75421,1.9661 -23.86534,2.84147 l -0.11932,3.25381 c -17.1894,2.95399 -45.87491,1.85178 -55.69933,-6.31878 0.57582,-2.17911 1.16075,-4.21867 1.69526,-7.0293 z"
       id="rect4235"
       inkscape:connector-curvature="0"
       sodipodi:nodetypes="ccccccccccccc" />
    <path
       style="fill:#af7734;fill-opacity:1"
       d="m 690.73273,842.11075 25.2345,-7.0036 c 4.48702,-5.23482 10.60685,-9.66954 16.64554,-14.14403 3.40541,-4.46095 6.41674,-9.91931 8.10825,-15.26597 l 1.76011,-11.1068 c 2.21556,-0.70218 4.38473,-2.11429 6.6716,-1.72591 l -1.40022,5.18183 1.22313,11.11265 19.70775,0.64579 15.18426,-1.80656 c -0.89276,4.48723 0.96989,7.182 2.37214,17.21506 0.63235,7.11651 4.20273,8.44997 4.47341,24.64268 l -12.76829,1.97841 -33.93783,4.77792 c -13.05715,2.07197 -39.22922,10.29045 -63.86682,-2.01525 0.58496,-3.89615 1.46983,-7.45797 3.82403,-9.38193 1.86879,-1.57546 4.30337,-2.36116 6.76844,-3.10429 z"
       id="rect4232"
       inkscape:connector-curvature="0"
       sodipodi:nodetypes="ccccccccccccccccc" />
    <path
       style="fill:#23201c;fill-opacity:1"
       d="m 749.75412,792.2418 2.154,-0.22581 c 8.01283,5.23405 18.84487,-1.0488 29.33207,-1.32743 1.26875,0.67546 2.28351,1.6156 2.86208,3.58304 0.72879,3.4675 0.92018,6.67167 0.51887,9.58538 -0.0704,1.13727 0.0402,2.29865 -0.77814,3.33633 l -7.44531,1.74338 -9.97956,0.66606 -10.67964,0.4094 -6.91415,-0.61925 -1.13263,-8.49008 z"
       id="rect4307"
       inkscape:connector-curvature="0"
       sodipodi:nodetypes="cccccccccccc" />
    <path
       style="fill:#e0c49b;fill-opacity:1"
       d="m 716.6205,842.99218 c 6.61492,-2.58891 13.6777,-4.55882 21.09244,-6.25898 15.64401,-3.58711 31.68832,-7.19038 46.19145,-11.57055 l 2.27468,-0.70219 0.19646,1.37387 -2.3831,0.67491 c -11.33099,3.51451 -20.27719,5.97519 -34.60414,8.70919 -10.11778,1.93078 -27.85031,6.62048 -29.35538,7.42488 -3.26557,1.74528 -3.95373,1.03292 -3.95373,1.03292 -0.61137,-2.46089 -1.57375,-4.72463 -0.68188,-8.02976 0.26267,-0.80376 1.52665,-2.13301 1.52665,-2.13301 5.11641,-5.80051 10.80374,-9.25117 15.11533,-12.33649 1.6707,-1.0535 6.2147,-9.28847 8.07818,-14.6527 l 1.61774,-11.15778 c 0.52865,-1.0833 1.14626,-1.72121 1.83918,-1.98213 2.07632,-0.63454 4.42547,-1.03935 6.47213,-1.28326 l -0.43056,1.02028 c -2.47092,9.66183 -0.87645,13.94234 0.31344,15.74352 1.9837,2.11981 29.33893,-0.63616 34.08298,-1.86018 l -0.51187,2.09752 c 0,0 -32.39678,4.43338 -35.17706,0.64796 -2.08001,-4.33768 -1.17066,-10.36389 0.16929,-16.63335 -0.22833,-0.35009 -2.09035,0.30252 -3.17117,0.59067 -0.72384,0.0633 -1.48178,0.33746 -2.32314,1.12778 -1.23815,3.9076 -1.51665,6.98078 -1.91545,10.83282 -0.7633,3.42361 -5.2506,13.06076 -8.26302,15.84466 -5.39838,3.79178 -11.24811,7.65961 -15.56935,12.41146 -2.51301,2.41169 -1.2256,6.76161 -0.63012,9.06794 z"
       id="rect4304"
       inkscape:connector-curvature="0"
       sodipodi:nodetypes="csccccsscccccccccccccccccccc" />
    <g
       id="g4310"
       transform="matrix(0.93362632,-0.06178381,0.06138058,0.93880654,2.9192663,100.5109)">
      <path
         sodipodi:nodetypes="ccccccccc"
         inkscape:connector-curvature="0"
         id="rect4238"
         d="m 719.48117,822.127 1.88824,-0.72627 1.6473,0.32852 0.45459,1.5288 -1.33468,1.61173 -1.55059,0.74855 -1.90035,-0.26516 -0.40758,-1.79716 z"
         style="fill:#f7f5c5;fill-opacity:1" />
      <path
         sodipodi:nodetypes="ccccccccc"
         inkscape:connector-curvature="0"
         id="rect4238-4"
         d="m 720.04514,822.61031 1.14632,-0.44091 1.00005,0.19943 0.27597,0.92812 -0.81026,0.97845 -0.94133,0.45444 -1.15368,-0.16097 -0.24743,-1.09103 z"
         style="fill:#241b0c;fill-opacity:1" />
      <path
         inkscape:transform-center-y="0.050417009"
         inkscape:transform-center-x="-0.045857708"
         sodipodi:nodetypes="ccccccccc"
         inkscape:connector-curvature="0"
         id="rect4238-8"
         d="m 710.92559,828.58781 1.71486,-0.71228 1.51943,0.26142 0.45427,1.39166 -1.18542,1.51126 -1.40451,0.72453 -1.75009,-0.19708 -0.41765,-1.63903 z"
         style="fill:#f7f5c5;fill-opacity:1" />
      <path
         inkscape:transform-center-y="-0.003947991"
         inkscape:transform-center-x="-0.060472708"
         sodipodi:nodetypes="ccccccccc"
         inkscape:connector-curvature="0"
         id="rect4238-4-2"
         d="m 711.45481,829.01756 1.04105,-0.43242 0.92241,0.15874 0.27578,0.84487 -0.71964,0.91746 -0.85265,0.43985 -1.0624,-0.12005 -0.25355,-0.99504 z"
         style="fill:#241b0c;fill-opacity:1" />
      <path
         sodipodi:nodetypes="ccccccccc"
         inkscape:connector-curvature="0"
         id="rect4238-7"
         d="m 728.12408,816.19318 1.64243,-1.18125 1.67677,-0.0999 0.82732,1.36361 -0.88246,1.89744 -1.31016,1.11721 -1.90549,0.22529 -0.84988,-1.63512 z"
         style="fill:#f7f5c5;fill-opacity:1" />
      <path
         sodipodi:nodetypes="ccccccccc"
         inkscape:connector-curvature="0"
         id="rect4238-4-7"
         d="m 728.79216,816.51772 0.99709,-0.71712 1.01793,-0.0606 0.50226,0.82784 -0.53573,1.1519 -0.79536,0.67824 -1.1568,0.13678 -0.51595,-0.99266 z"
         style="fill:#241b0c;fill-opacity:1" />
      <path
         style="fill:#f7f5c5;fill-opacity:1"
         d="m 734.36573,808.25933 1.63263,-1.53673 1.9022,-0.42508 1.23933,1.25136 -0.60839,2.13148 -1.26508,1.40674 -2.13789,0.59864 -1.32299,-1.52779 z"
         id="path4292"
         inkscape:connector-curvature="0"
         sodipodi:nodetypes="ccccccccc" />
      <path
         style="fill:#241b0c;fill-opacity:1"
         d="m 735.2012,808.46672 0.99113,-0.93292 1.1548,-0.258 0.75237,0.75968 -0.36933,1.294 -0.768,0.854 -1.29788,0.36343 -0.80317,-0.92751 z"
         id="path4294"
         inkscape:connector-curvature="0"
         sodipodi:nodetypes="ccccccccc" />
      <path
         sodipodi:nodetypes="ccccccccc"
         inkscape:connector-curvature="0"
         id="path4296"
         d="m 738.55778,800.4869 0.78076,-1.87246 1.5107,-1.12833 1.657,0.44383 0.39523,1.90028 -0.50992,1.61753 -1.64466,1.36141 -1.85336,-0.62189 z"
         style="fill:#f7f5c5;fill-opacity:1" />
      <path
         sodipodi:nodetypes="ccccccccc"
         inkscape:connector-curvature="0"
         id="path4298"
         d="m 739.39477,800.29533 0.47398,-1.13673 0.91715,-0.68496 1.00593,0.26946 0.23996,1.15363 -0.30956,0.98197 -0.99845,0.82648 -1.12515,-0.37754 z"
         style="fill:#241b0c;fill-opacity:1" />
      <path
         style="fill:#f7f5c5;fill-opacity:1"
         d="m 741.05778,790.3619 0.78076,-1.87246 1.5107,-1.12833 1.657,0.44383 0.39523,1.90028 -0.50992,1.61753 -1.64466,1.36141 -1.85336,-0.62189 z"
         id="path4300"
         inkscape:connector-curvature="0"
         sodipodi:nodetypes="ccccccccc" />
      <path
         style="fill:#241b0c;fill-opacity:1"
         d="m 741.89477,790.17033 0.47398,-1.13673 0.91715,-0.68496 1.00593,0.26946 0.23996,1.15363 -0.30956,0.98197 -0.99845,0.82648 -1.12515,-0.37754 z"
         id="path4302"
         inkscape:connector-curvature="0"
         sodipodi:nodetypes="ccccccccc" />
    </g>
    <path
       style="fill:#face9b;fill-opacity:1"
       d="m 543.61017,410.02691 c 0.48932,-1.18242 1.24268,-2.23283 2.0625,-3.25 2.82527,-3.80821 18.67233,-3.39676 21.72647,0.66838 l 1.21103,2.58162 0,134.29379 c -3.23364,22.14668 -5.31291,50.36403 -5.95545,70.81414 -1.05222,50.96088 -1.93012,112.53796 0.45581,115.22489 0.53406,0.58014 0.98474,0.34966 1.6793,1.1266 1.07097,0.59744 1.78029,3.16961 0.35031,5.49654 -1.21489,1.77888 -4.3934,2.02518 -8.7257,2.07134 -2.8631,-0.0928 -4.08685,10e-4 -7.77218,-1.43686 -2.00497,-1.21681 -2.42809,-4.36627 -0.95786,-6.62046 0.69175,-0.39134 1.77022,-0.82566 1.78298,-1.14156 4.10039,-5.07825 2.46927,-63.25082 1.39076,-114.66552 0.42356,-20.91204 -3.50743,-49.67674 -6.65514,-70.58878 z"
       id="rect4335"
       inkscape:connector-curvature="0"
       sodipodi:nodetypes="cccccccccccccccc" />
    <path
       style="fill:#800000;fill-opacity:1"
       d="m 544.19194,548.63303 c 8.12247,1.07987 16.24495,0.92761 24.36742,0.007 0.24823,2.63599 -0.13212,5.52633 -0.58904,8.57365 -7.69844,1.4552 -15.39688,1.15172 -23.09532,0.0221 -0.74124,-3.38097 -0.88298,-6.16244 -0.68306,-8.60225 z"
       id="rect4338"
       inkscape:connector-curvature="0"
       sodipodi:nodetypes="ccccc" />
  </g>
</svg>
