<?xml version="1.0" encoding="UTF-8" standalone="no"?>
<!-- Created with Inkscape (http://www.inkscape.org/) -->

<svg
   xmlns:dc="http://purl.org/dc/elements/1.1/"
   xmlns:cc="http://creativecommons.org/ns#"
   xmlns:rdf="http://www.w3.org/1999/02/22-rdf-syntax-ns#"
   xmlns:svg="http://www.w3.org/2000/svg"
   xmlns="http://www.w3.org/2000/svg"
   xmlns:sodipodi="http://sodipodi.sourceforge.net/DTD/sodipodi-0.dtd"
   xmlns:inkscape="http://www.inkscape.org/namespaces/inkscape"
   width="1920"
   height="1080"
   id="svg4186"
   version="1.1"
   inkscape:version="0.91 r13725"
   viewBox="0 0 1920 1080"
   sodipodi:docname="kids_house_wall.svg">
  <defs
     id="defs4188" />
  <sodipodi:namedview
     id="base"
     pagecolor="#ffffff"
     bordercolor="#666666"
     borderopacity="1.0"
     inkscape:pageopacity="0.0"
     inkscape:pageshadow="2"
     inkscape:zoom="0.18031223"
     inkscape:cx="1813.2275"
     inkscape:cy="523.62276"
     inkscape:document-units="px"
     inkscape:current-layer="layer1"
     showgrid="false"
     inkscape:window-width="1366"
     inkscape:window-height="705"
     inkscape:window-x="-8"
     inkscape:window-y="-8"
     inkscape:window-maximized="1" />
  <metadata
     id="metadata4191">
    <rdf:RDF>
      <cc:Work
         rdf:about="">
        <dc:format>image/svg+xml</dc:format>
        <dc:type
           rdf:resource="http://purl.org/dc/dcmitype/StillImage" />
        <dc:title></dc:title>
      </cc:Work>
    </rdf:RDF>
  </metadata>
  <g
     id="layer1"
     inkscape:label="Layer 1"
     inkscape:groupmode="layer">
    <rect
       style="opacity:1;fill:#e2d3a7;fill-opacity:1"
       id="rect4734"
       width="1920"
       height="1080"
       x="0"
       y="-1.8733755" />
    <ellipse
       style="opacity:1;fill:#e4d6ad;fill-opacity:1"
       id="path4752"
       cx="970"
       cy="558.33331"
       rx="863.33331"
       ry="481.66666" />
    <g
       id="g4756">
      <path
         sodipodi:nodetypes="cccccccsccccccccccsccccccc"
         inkscape:connector-curvature="0"
         id="rect4747"
         d="m 1526.4393,0.31605785 18.3903,-1.1493923 C 1529.4466,24.511501 1527.739,44.103572 1504.6008,69.279595 c -6.5374,5.551465 -13.1109,10.887123 -19.1233,19.589229 -3.5197,7.576171 -2.3216,13.737086 -0.499,19.710596 l 17.4063,23.06469 0.077,8.49065 c -1.0828,-1.47078 16.4762,11.45747 15.3468,11.86055 -0.2793,0.0997 7.7358,10.50807 7.7358,10.50807 l 14.1047,39.23549 -6.3046,12.65877 6.5404,13.65591 -10.3481,24.63412 6.8437,-25.52137 -8.3101,-10.72251 7.1805,-15.61778 -12.1102,-35.01942 c -5.3321,-13.81128 -17.4424,-18.31019 -17.4424,-18.31019 0.8664,-3.46539 -14.2983,-8.16331 -12.8664,-7.6875 11.1807,3.71517 -1.7646,-19.65643 -10.122,-26.10405 l -2.3549,7.438 0.6813,-11.94892 c -3.2471,-4.80728 -2.3226,-12.743283 -1.3326,-20.728388 3.8403,-8.226592 8.4157,-14.363058 17.9367,-22.024566 17.9609,-14.82179 37.6293,-56.192786 28.7986,-66.12491815 z"
         style="opacity:1;fill:#352a08;fill-opacity:1" />
      <path
         style="opacity:1;fill:#352a08;fill-opacity:1"
         d="m 1539.3704,199.60592 -10.4386,12.9982 c 27.6281,4.16908 43.6978,14.98252 75.2215,13.26708 7.6962,-1.44803 15.2441,-3.05618 25.1094,-2.16923 7.6987,2.05022 11.851,6.74387 15.534,11.78728 l 8.8376,27.20223 6.54,5.29535 c -0.5778,-1.71441 0.3249,19.34859 1.2237,18.75537 0.222,-0.14719 4.1272,12.24818 4.1272,12.24818 l 23.0834,34.71696 13.0832,3.10997 7.1874,13.29903 24.4633,7.48342 -23.3313,-10.64285 -3.9953,-12.80857 -15.8312,-4.2824 -20.8518,-30.62935 c -7.9349,-12.49439 -5.1341,-24.29616 -5.1341,-24.29616 -3.1353,-1.49198 1.0973,-15.69321 0.7225,-14.33235 -2.9255,10.62537 -14.317,-13.44112 -14.9746,-23.64779 l 6.9868,2.83319 -9.6138,-6.86332 c -2.0398,-5.38574 -8.6698,-9.59235 -15.3721,-13.78025 -8.369,-2.21261 -15.5001,-2.58785 -26.3807,-0.21752 -20.8114,4.24388 -63.0842,-6.61749 -66.1964,-19.32659 z"
         id="path4750"
         inkscape:connector-curvature="0"
         sodipodi:nodetypes="cccccccsccccccccccsccccccc" />
    </g>
    <ellipse
       ry="251.66666"
       rx="451.08417"
       cy="681.66663"
       cx="972.24915"
       id="ellipse4754"
       style="opacity:0.693;fill:#e7dbb8;fill-opacity:1" />
    <g
       inkscape:label="Layer 1"
       id="layer1-8"
       transform="matrix(1.5211387,0,0,1.5211387,-483.57729,-164.53753)">
      <path
         style="fill:#202221;fill-opacity:1"
         d="m 997.73642,575.30253 -8.22884,0 2.84271,13.25826 6.73267,0.14731 z"
         id="path4188"
         inkscape:connector-curvature="0"
         sodipodi:nodetypes="ccccc" />
      <path
         sodipodi:nodetypes="ccccc"
         inkscape:connector-curvature="0"
         id="rect4185"
         d="m 887.86096,575.15521 8.10227,0 -2.79897,13.25826 -6.62913,0.14731 z"
         style="fill:#202221;fill-opacity:1" />
      <rect
         ry="2.2097113"
         y="569.11536"
         x="873.57147"
         height="6.7764392"
         width="139.80086"
         id="rect4181"
         style="fill:#3c1404;fill-opacity:1" />
      <rect
         ry="13.5529"
         y="455.68362"
         x="857.07233"
         height="116.96724"
         width="170.88419"
         id="rect4177"
         style="fill:#382114;fill-opacity:1" />
      <rect
         ry="11.490492"
         y="461.57617"
         x="862.9649"
         height="106.94994"
         width="158.5098"
         id="rect4179"
         style="fill:#b3b3b3;fill-opacity:1" />
      <rect
         ry="11.861506"
         y="467.08334"
         x="870"
         height="94.196274"
         width="110.83337"
         id="rect4190"
         style="fill:#1a1a1a;fill-opacity:1" />
      <g
         id="g4204">
        <circle
           r="9.6160116"
           cy="481.6972"
           cx="1003.3027"
           id="circle4200"
           style="fill:#a7a7a7;fill-opacity:1" />
      </g>
      <circle
         r="8.4375"
         cy="481.77084"
         cx="1003.2292"
         id="path4192"
         style="fill:#3a3a3a;fill-opacity:1" />
      <g
         transform="translate(0.84073624,20.884365)"
         id="g4213">
        <circle
           style="fill:#a7a7a7;fill-opacity:1"
           id="circle4215"
           cx="1003.3027"
           cy="481.6972"
           r="9.6160116" />
      </g>
      <circle
         style="fill:#3a3a3a;fill-opacity:1"
         id="circle4194"
         cx="1004.0625"
         cy="502.60419"
         r="8.4375" />
      <circle
         r="5.712193"
         cy="502.67786"
         cx="1003.9888"
         id="circle4196"
         style="fill:#aa4400;fill-opacity:1" />
      <circle
         style="fill:#aa4400;fill-opacity:1"
         id="circle4198"
         cx="1003.3995"
         cy="481.61197"
         r="5.712193" />
      <rect
         transform="matrix(0.76760218,0.64092659,-0.64092659,0.76760218,0,0)"
         ry="0"
         y="-274.30435"
         x="1069.7836"
         height="2.5043459"
         width="18.708885"
         id="rect4202"
         style="fill:#a7a7a7;fill-opacity:1" />
      <rect
         style="fill:#a7a7a7;fill-opacity:1"
         id="rect4211"
         width="18.708885"
         height="2.5043459"
         x="-281.06091"
         y="-1090.7069"
         ry="0"
         transform="matrix(-0.65065272,0.75937543,-0.75937543,-0.65065272,0,0)" />
      <g
         transform="translate(1.0311974,-0.14731391)"
         id="g4221">
        <path
           sodipodi:nodetypes="ccccccccc"
           inkscape:connector-curvature="0"
           id="rect4217"
           d="m 990.20831,471.04166 0.90076,-1.42311 0.80537,0.81151 -0.39057,0.64412 -0.27389,86.21748 0.32973,1.80651 -1.19668,0.94529 -0.43514,-1.39763 z"
           style="fill:#1a1a1a;fill-opacity:1" />
        <path
           sodipodi:nodetypes="cccccccccc"
           inkscape:connector-curvature="0"
           id="rect4219"
           d="m 992.70831,468.95834 20.41669,0 1.4323,0.35564 -0.5459,1.46997 -0.2044,-0.31983 -0.682,-0.16463 -20.40628,-0.13599 -0.85242,0.29263 -0.81241,-0.77637 z"
           style="fill:#1a1a1a;fill-opacity:1" />
      </g>
      <g
         transform="matrix(-1.0181798,0,0,-1.0306607,2024.2518,1044.639)"
         id="g4227">
        <path
           style="fill:#1a1a1a;fill-opacity:1"
           d="m 990.16743,471.08352 0.90076,-1.42311 2.01254,0.73107 -1.09168,0.27323 -0.36143,0.68512 -0.41852,85.98369 -0.55317,1.02331 -0.4885,-1.02331 z"
           id="path4229"
           inkscape:connector-curvature="0"
           sodipodi:nodetypes="ccccccccc" />
        <path
           style="fill:#1a1a1a;fill-opacity:1"
           d="m 992.70831,468.95834 20.16089,0 1.5401,1.37946 -1.182,0.93175 -0.9204,-0.7516 -19.51349,-0.1188 -1.73952,-0.7194 z"
           id="path4231"
           inkscape:connector-curvature="0"
           sodipodi:nodetypes="cccccccc" />
      </g>
      <rect
         ry="0.97225952"
         y="515.19849"
         x="993.30823"
         height="1.944519"
         width="20.506094"
         id="rect4233"
         style="fill:#1a1a1a;fill-opacity:1" />
      <rect
         style="fill:#1a1a1a;fill-opacity:1"
         id="rect4235"
         width="20.506094"
         height="1.944519"
         x="993.30823"
         y="518.1153"
         ry="0.97225952" />
      <rect
         style="fill:#1a1a1a;fill-opacity:1"
         id="rect4237"
         width="20.506094"
         height="1.944519"
         x="993.30823"
         y="521.20892"
         ry="0.97225952" />
      <rect
         ry="0.97225952"
         y="524.12573"
         x="993.30823"
         height="1.944519"
         width="20.506094"
         id="rect4239"
         style="fill:#1a1a1a;fill-opacity:1" />
      <rect
         style="fill:#1a1a1a;fill-opacity:1"
         id="rect4241"
         width="20.506094"
         height="1.944519"
         x="993.30823"
         y="527.04254"
         ry="0.97225952" />
      <rect
         ry="0.97225952"
         y="529.95935"
         x="993.30823"
         height="1.944519"
         width="20.506094"
         id="rect4243"
         style="fill:#1a1a1a;fill-opacity:1" />
      <rect
         ry="0.97225952"
         y="533.05298"
         x="993.30823"
         height="1.944519"
         width="20.506094"
         id="rect4245"
         style="fill:#1a1a1a;fill-opacity:1" />
      <rect
         style="fill:#1a1a1a;fill-opacity:1"
         id="rect4247"
         width="20.506094"
         height="1.944519"
         x="993.30823"
         y="535.96979"
         ry="0.97225952" />
      <rect
         style="fill:#1a1a1a;fill-opacity:1"
         id="rect4249"
         width="20.506094"
         height="1.944519"
         x="993.30823"
         y="538.82349"
         ry="0.97225952" />
      <rect
         ry="0.97225952"
         y="541.7403"
         x="993.30823"
         height="1.944519"
         width="20.506094"
         id="rect4251"
         style="fill:#1a1a1a;fill-opacity:1" />
      <rect
         ry="0.97225952"
         y="544.83392"
         x="993.30823"
         height="1.944519"
         width="20.506094"
         id="rect4253"
         style="fill:#1a1a1a;fill-opacity:1" />
      <rect
         style="fill:#1a1a1a;fill-opacity:1"
         id="rect4255"
         width="20.506094"
         height="1.944519"
         x="993.30823"
         y="547.75073"
         ry="0.97225952" />
      <rect
         ry="0.97225952"
         y="550.66754"
         x="993.30823"
         height="1.944519"
         width="20.506094"
         id="rect4257"
         style="fill:#1a1a1a;fill-opacity:1" />
      <rect
         style="fill:#1a1a1a;fill-opacity:1"
         id="rect4259"
         width="20.506094"
         height="1.944519"
         x="993.30823"
         y="553.58435"
         ry="0.97225952" />
      <rect
         style="fill:#1a1a1a;fill-opacity:1"
         id="rect4261"
         width="20.506094"
         height="1.944519"
         x="993.30823"
         y="556.67798"
         ry="0.97225952" />
    </g>
    <rect
       style="opacity:1;fill:#483e37;fill-opacity:1"
       id="rect5039"
       width="1923.5294"
       height="140.37842"
       x="-1.9607843"
       y="1083.9215" />
    <g
       id="g4858"
       transform="matrix(0.89316511,0,0,1,-0.01851566,0)">
      <path
         sodipodi:nodetypes="ccccccc"
         inkscape:connector-curvature="0"
         id="rect4846"
         d="m -0.05436921,1076.544 c 0.31571266,-0.9578 0.97084557,-1.8137 2.43738841,-2.4263 l 86.8598488,0 c 1.345238,0.4732 2.64626,0.9773 2.859623,2.2428 l 0,23.2474 -92.15686021,0 z"
         style="opacity:1;fill:#784421;fill-opacity:1" />
      <path
         sodipodi:nodetypes="cccccc"
         inkscape:connector-curvature="0"
         id="rect4848"
         d="m 2.7729673,1074.1075 85.9619977,0 c 1.504112,0.3146 3.129222,0.4477 3.292899,2.773 -26.704089,-1.3442 -91.86040549,11.4449 -91.86040549,11.4449 l -0.34076947,-11.4449 c 0.33277862,-1.249 1.00853423,-2.3265 2.94627826,-2.773 z"
         style="opacity:0.96280009;fill:#a05a2c;fill-opacity:1" />
      <path
         sodipodi:nodetypes="ccccc"
         inkscape:connector-curvature="0"
         id="rect4854"
         d="m 0,1096.1178 91.854561,-13.3449 0,16.4645 -91.854561,0 z"
         style="opacity:0.94020003;fill:#502d16;fill-opacity:1" />
    </g>
    <g
       id="g4863"
       transform="matrix(0.89316511,0,0,1,88.47546,0)">
      <path
         style="opacity:1;fill:#784421;fill-opacity:1"
         d="m -0.05436921,1076.544 c 0.31571266,-0.9578 0.97084557,-1.8137 2.43738841,-2.4263 l 86.8598488,0 c 1.345238,0.4732 2.64626,0.9773 2.859623,2.2428 l 0,23.2474 -92.15686021,0 z"
         id="path4865"
         inkscape:connector-curvature="0"
         sodipodi:nodetypes="ccccccc" />
      <path
         style="opacity:0.96280009;fill:#a05a2c;fill-opacity:1"
         d="m 2.7729673,1074.1075 85.9619977,0 c 1.504112,0.3146 3.129222,0.4477 3.292899,2.773 -26.704089,-1.3442 -91.86040549,11.4449 -91.86040549,11.4449 l -0.34076947,-11.4449 c 0.33277862,-1.249 1.00853423,-2.3265 2.94627826,-2.773 z"
         id="path4867"
         inkscape:connector-curvature="0"
         sodipodi:nodetypes="cccccc" />
      <path
         style="opacity:0.94020003;fill:#502d16;fill-opacity:1"
         d="m 0,1096.1178 91.854561,-13.3449 0,16.4645 -91.854561,0 z"
         id="path4869"
         inkscape:connector-curvature="0"
         sodipodi:nodetypes="ccccc" />
    </g>
    <g
       transform="matrix(0.89316511,0,0,1,176.04066,0)"
       id="g4871">
      <path
         sodipodi:nodetypes="ccccccc"
         inkscape:connector-curvature="0"
         id="path4873"
         d="m -0.05436921,1076.544 c 0.31571266,-0.9578 0.97084557,-1.8137 2.43738841,-2.4263 l 86.8598488,0 c 1.345238,0.4732 2.64626,0.9773 2.859623,2.2428 l 0,23.2474 -92.15686021,0 z"
         style="opacity:1;fill:#784421;fill-opacity:1" />
      <path
         sodipodi:nodetypes="cccccc"
         inkscape:connector-curvature="0"
         id="path4875"
         d="m 2.7729673,1074.1075 85.9619977,0 c 1.504112,0.3146 3.129222,0.4477 3.292899,2.773 -26.704089,-1.3442 -91.86040549,11.4449 -91.86040549,11.4449 l -0.34076947,-11.4449 c 0.33277862,-1.249 1.00853423,-2.3265 2.94627826,-2.773 z"
         style="opacity:0.96280009;fill:#a05a2c;fill-opacity:1" />
      <path
         sodipodi:nodetypes="ccccc"
         inkscape:connector-curvature="0"
         id="path4877"
         d="m 0,1096.1178 91.854561,-13.3449 0,16.4645 -91.854561,0 z"
         style="opacity:0.94020003;fill:#502d16;fill-opacity:1" />
    </g>
    <g
       id="g4879"
       transform="matrix(0.89316511,0,0,1,263.55276,0)">
      <path
         style="opacity:1;fill:#784421;fill-opacity:1"
         d="m -0.05436921,1076.544 c 0.31571266,-0.9578 0.97084557,-1.8137 2.43738841,-2.4263 l 86.8598488,0 c 1.345238,0.4732 2.64626,0.9773 2.859623,2.2428 l 0,23.2474 -92.15686021,0 z"
         id="path4881"
         inkscape:connector-curvature="0"
         sodipodi:nodetypes="ccccccc" />
      <path
         style="opacity:0.96280009;fill:#a05a2c;fill-opacity:1"
         d="m 2.7729673,1074.1075 85.9619977,0 c 1.504112,0.3146 3.129222,0.4477 3.292899,2.773 -26.704089,-1.3442 -91.86040549,11.4449 -91.86040549,11.4449 l -0.34076947,-11.4449 c 0.33277862,-1.249 1.00853423,-2.3265 2.94627826,-2.773 z"
         id="path4883"
         inkscape:connector-curvature="0"
         sodipodi:nodetypes="cccccc" />
      <path
         style="opacity:0.94020003;fill:#502d16;fill-opacity:1"
         d="m 0,1096.1178 91.854561,-13.3449 0,16.4645 -91.854561,0 z"
         id="path4885"
         inkscape:connector-curvature="0"
         sodipodi:nodetypes="ccccc" />
    </g>
    <g
       transform="matrix(0.89316511,0,0,1,352.04673,0)"
       id="g4887">
      <path
         sodipodi:nodetypes="ccccccc"
         inkscape:connector-curvature="0"
         id="path4889"
         d="m -0.05436921,1076.544 c 0.31571266,-0.9578 0.97084557,-1.8137 2.43738841,-2.4263 l 86.8598488,0 c 1.345238,0.4732 2.64626,0.9773 2.859623,2.2428 l 0,23.2474 -92.15686021,0 z"
         style="opacity:1;fill:#784421;fill-opacity:1" />
      <path
         sodipodi:nodetypes="cccccc"
         inkscape:connector-curvature="0"
         id="path4891"
         d="m 2.7729673,1074.1075 85.9619977,0 c 1.504112,0.3146 3.129222,0.4477 3.292899,2.773 -26.704089,-1.3442 -91.86040549,11.4449 -91.86040549,11.4449 l -0.34076947,-11.4449 c 0.33277862,-1.249 1.00853423,-2.3265 2.94627826,-2.773 z"
         style="opacity:0.96280009;fill:#a05a2c;fill-opacity:1" />
      <path
         sodipodi:nodetypes="ccccc"
         inkscape:connector-curvature="0"
         id="path4893"
         d="m 0,1096.1178 91.854561,-13.3449 0,16.4645 -91.854561,0 z"
         style="opacity:0.94020003;fill:#502d16;fill-opacity:1" />
    </g>
    <g
       id="g4895"
       transform="matrix(0.89316511,0,0,1,439.61194,0)">
      <path
         style="opacity:1;fill:#784421;fill-opacity:1"
         d="m -0.05436921,1076.544 c 0.31571266,-0.9578 0.97084557,-1.8137 2.43738841,-2.4263 l 86.8598488,0 c 1.345238,0.4732 2.64626,0.9773 2.859623,2.2428 l 0,23.2474 -92.15686021,0 z"
         id="path4897"
         inkscape:connector-curvature="0"
         sodipodi:nodetypes="ccccccc" />
      <path
         style="opacity:0.96280009;fill:#a05a2c;fill-opacity:1"
         d="m 2.7729673,1074.1075 85.9619977,0 c 1.504112,0.3146 3.129222,0.4477 3.292899,2.773 -26.704089,-1.3442 -91.86040549,11.4449 -91.86040549,11.4449 l -0.34076947,-11.4449 c 0.33277862,-1.249 1.00853423,-2.3265 2.94627826,-2.773 z"
         id="path4899"
         inkscape:connector-curvature="0"
         sodipodi:nodetypes="cccccc" />
      <path
         style="opacity:0.94020003;fill:#502d16;fill-opacity:1"
         d="m 0,1096.1178 91.854561,-13.3449 0,16.4645 -91.854561,0 z"
         id="path4901"
         inkscape:connector-curvature="0"
         sodipodi:nodetypes="ccccc" />
    </g>
    <g
       id="g4903"
       transform="matrix(0.89316511,0,0,1,528.87533,0)">
      <path
         style="opacity:1;fill:#784421;fill-opacity:1"
         d="m -0.05436921,1076.544 c 0.31571266,-0.9578 0.97084557,-1.8137 2.43738841,-2.4263 l 86.8598488,0 c 1.345238,0.4732 2.64626,0.9773 2.859623,2.2428 l 0,23.2474 -92.15686021,0 z"
         id="path4905"
         inkscape:connector-curvature="0"
         sodipodi:nodetypes="ccccccc" />
      <path
         style="opacity:0.96280009;fill:#a05a2c;fill-opacity:1"
         d="m 2.7729673,1074.1075 85.9619977,0 c 1.504112,0.3146 3.129222,0.4477 3.292899,2.773 -26.704089,-1.3442 -91.86040549,11.4449 -91.86040549,11.4449 l -0.34076947,-11.4449 c 0.33277862,-1.249 1.00853423,-2.3265 2.94627826,-2.773 z"
         id="path4907"
         inkscape:connector-curvature="0"
         sodipodi:nodetypes="cccccc" />
      <path
         style="opacity:0.94020003;fill:#502d16;fill-opacity:1"
         d="m 0,1096.1178 91.854561,-13.3449 0,16.4645 -91.854561,0 z"
         id="path4909"
         inkscape:connector-curvature="0"
         sodipodi:nodetypes="ccccc" />
    </g>
    <g
       transform="matrix(0.89316511,0,0,1,617.36931,0)"
       id="g4911">
      <path
         sodipodi:nodetypes="ccccccc"
         inkscape:connector-curvature="0"
         id="path4913"
         d="m -0.05436921,1076.544 c 0.31571266,-0.9578 0.97084557,-1.8137 2.43738841,-2.4263 l 86.8598488,0 c 1.345238,0.4732 2.64626,0.9773 2.859623,2.2428 l 0,23.2474 -92.15686021,0 z"
         style="opacity:1;fill:#784421;fill-opacity:1" />
      <path
         sodipodi:nodetypes="cccccc"
         inkscape:connector-curvature="0"
         id="path4915"
         d="m 2.7729673,1074.1075 85.9619977,0 c 1.504112,0.3146 3.129222,0.4477 3.292899,2.773 -26.704089,-1.3442 -91.86040549,11.4449 -91.86040549,11.4449 l -0.34076947,-11.4449 c 0.33277862,-1.249 1.00853423,-2.3265 2.94627826,-2.773 z"
         style="opacity:0.96280009;fill:#a05a2c;fill-opacity:1" />
      <path
         sodipodi:nodetypes="ccccc"
         inkscape:connector-curvature="0"
         id="path4917"
         d="m 0,1096.1178 91.854561,-13.3449 0,16.4645 -91.854561,0 z"
         style="opacity:0.94020003;fill:#502d16;fill-opacity:1" />
    </g>
    <g
       id="g4919"
       transform="matrix(0.89316511,0,0,1,704.93451,0)">
      <path
         style="opacity:1;fill:#784421;fill-opacity:1"
         d="m -0.05436921,1076.544 c 0.31571266,-0.9578 0.97084557,-1.8137 2.43738841,-2.4263 l 86.8598488,0 c 1.345238,0.4732 2.64626,0.9773 2.859623,2.2428 l 0,23.2474 -92.15686021,0 z"
         id="path4921"
         inkscape:connector-curvature="0"
         sodipodi:nodetypes="ccccccc" />
      <path
         style="opacity:0.96280009;fill:#a05a2c;fill-opacity:1"
         d="m 2.7729673,1074.1075 85.9619977,0 c 1.504112,0.3146 3.129222,0.4477 3.292899,2.773 -26.704089,-1.3442 -91.86040549,11.4449 -91.86040549,11.4449 l -0.34076947,-11.4449 c 0.33277862,-1.249 1.00853423,-2.3265 2.94627826,-2.773 z"
         id="path4923"
         inkscape:connector-curvature="0"
         sodipodi:nodetypes="cccccc" />
      <path
         style="opacity:0.94020003;fill:#502d16;fill-opacity:1"
         d="m 0,1096.1178 91.854561,-13.3449 0,16.4645 -91.854561,0 z"
         id="path4925"
         inkscape:connector-curvature="0"
         sodipodi:nodetypes="ccccc" />
    </g>
    <g
       transform="matrix(0.89316511,0,0,1,792.4466,0)"
       id="g4927">
      <path
         sodipodi:nodetypes="ccccccc"
         inkscape:connector-curvature="0"
         id="path4929"
         d="m -0.05436921,1076.544 c 0.31571266,-0.9578 0.97084557,-1.8137 2.43738841,-2.4263 l 86.8598488,0 c 1.345238,0.4732 2.64626,0.9773 2.859623,2.2428 l 0,23.2474 -92.15686021,0 z"
         style="opacity:1;fill:#784421;fill-opacity:1" />
      <path
         sodipodi:nodetypes="cccccc"
         inkscape:connector-curvature="0"
         id="path4931"
         d="m 2.7729673,1074.1075 85.9619977,0 c 1.504112,0.3146 3.129222,0.4477 3.292899,2.773 -26.704089,-1.3442 -91.86040549,11.4449 -91.86040549,11.4449 l -0.34076947,-11.4449 c 0.33277862,-1.249 1.00853423,-2.3265 2.94627826,-2.773 z"
         style="opacity:0.96280009;fill:#a05a2c;fill-opacity:1" />
      <path
         sodipodi:nodetypes="ccccc"
         inkscape:connector-curvature="0"
         id="path4933"
         d="m 0,1096.1178 91.854561,-13.3449 0,16.4645 -91.854561,0 z"
         style="opacity:0.94020003;fill:#502d16;fill-opacity:1" />
    </g>
    <g
       id="g4935"
       transform="matrix(0.89316511,0,0,1,880.94058,0)">
      <path
         style="opacity:1;fill:#784421;fill-opacity:1"
         d="m -0.05436921,1076.544 c 0.31571266,-0.9578 0.97084557,-1.8137 2.43738841,-2.4263 l 86.8598488,0 c 1.345238,0.4732 2.64626,0.9773 2.859623,2.2428 l 0,23.2474 -92.15686021,0 z"
         id="path4937"
         inkscape:connector-curvature="0"
         sodipodi:nodetypes="ccccccc" />
      <path
         style="opacity:0.96280009;fill:#a05a2c;fill-opacity:1"
         d="m 2.7729673,1074.1075 85.9619977,0 c 1.504112,0.3146 3.129222,0.4477 3.292899,2.773 -26.704089,-1.3442 -91.86040549,11.4449 -91.86040549,11.4449 l -0.34076947,-11.4449 c 0.33277862,-1.249 1.00853423,-2.3265 2.94627826,-2.773 z"
         id="path4939"
         inkscape:connector-curvature="0"
         sodipodi:nodetypes="cccccc" />
      <path
         style="opacity:0.94020003;fill:#502d16;fill-opacity:1"
         d="m 0,1096.1178 91.854561,-13.3449 0,16.4645 -91.854561,0 z"
         id="path4941"
         inkscape:connector-curvature="0"
         sodipodi:nodetypes="ccccc" />
    </g>
    <g
       transform="matrix(0.89316511,0,0,1,968.50579,0)"
       id="g4943">
      <path
         sodipodi:nodetypes="ccccccc"
         inkscape:connector-curvature="0"
         id="path4945"
         d="m -0.05436921,1076.544 c 0.31571266,-0.9578 0.97084557,-1.8137 2.43738841,-2.4263 l 86.8598488,0 c 1.345238,0.4732 2.64626,0.9773 2.859623,2.2428 l 0,23.2474 -92.15686021,0 z"
         style="opacity:1;fill:#784421;fill-opacity:1" />
      <path
         sodipodi:nodetypes="cccccc"
         inkscape:connector-curvature="0"
         id="path4947"
         d="m 2.7729673,1074.1075 85.9619977,0 c 1.504112,0.3146 3.129222,0.4477 3.292899,2.773 -26.704089,-1.3442 -91.86040549,11.4449 -91.86040549,11.4449 l -0.34076947,-11.4449 c 0.33277862,-1.249 1.00853423,-2.3265 2.94627826,-2.773 z"
         style="opacity:0.96280009;fill:#a05a2c;fill-opacity:1" />
      <path
         sodipodi:nodetypes="ccccc"
         inkscape:connector-curvature="0"
         id="path4949"
         d="m 0,1096.1178 91.854561,-13.3449 0,16.4645 -91.854561,0 z"
         style="opacity:0.94020003;fill:#502d16;fill-opacity:1" />
    </g>
    <g
       transform="matrix(0.89316511,0,0,1,1057.7692,0)"
       id="g4951">
      <path
         sodipodi:nodetypes="ccccccc"
         inkscape:connector-curvature="0"
         id="path4953"
         d="m -0.05436921,1076.544 c 0.31571266,-0.9578 0.97084557,-1.8137 2.43738841,-2.4263 l 86.8598488,0 c 1.345238,0.4732 2.64626,0.9773 2.859623,2.2428 l 0,23.2474 -92.15686021,0 z"
         style="opacity:1;fill:#784421;fill-opacity:1" />
      <path
         sodipodi:nodetypes="cccccc"
         inkscape:connector-curvature="0"
         id="path4955"
         d="m 2.7729673,1074.1075 85.9619977,0 c 1.504112,0.3146 3.129222,0.4477 3.292899,2.773 -26.704089,-1.3442 -91.86040549,11.4449 -91.86040549,11.4449 l -0.34076947,-11.4449 c 0.33277862,-1.249 1.00853423,-2.3265 2.94627826,-2.773 z"
         style="opacity:0.96280009;fill:#a05a2c;fill-opacity:1" />
      <path
         sodipodi:nodetypes="ccccc"
         inkscape:connector-curvature="0"
         id="path4957"
         d="m 0,1096.1178 91.854561,-13.3449 0,16.4645 -91.854561,0 z"
         style="opacity:0.94020003;fill:#502d16;fill-opacity:1" />
    </g>
    <g
       id="g4959"
       transform="matrix(0.89316511,0,0,1,1146.2632,0)">
      <path
         style="opacity:1;fill:#784421;fill-opacity:1"
         d="m -0.05436921,1076.544 c 0.31571266,-0.9578 0.97084557,-1.8137 2.43738841,-2.4263 l 86.8598488,0 c 1.345238,0.4732 2.64626,0.9773 2.859623,2.2428 l 0,23.2474 -92.15686021,0 z"
         id="path4961"
         inkscape:connector-curvature="0"
         sodipodi:nodetypes="ccccccc" />
      <path
         style="opacity:0.96280009;fill:#a05a2c;fill-opacity:1"
         d="m 2.7729673,1074.1075 85.9619977,0 c 1.504112,0.3146 3.129222,0.4477 3.292899,2.773 -26.704089,-1.3442 -91.86040549,11.4449 -91.86040549,11.4449 l -0.34076947,-11.4449 c 0.33277862,-1.249 1.00853423,-2.3265 2.94627826,-2.773 z"
         id="path4963"
         inkscape:connector-curvature="0"
         sodipodi:nodetypes="cccccc" />
      <path
         style="opacity:0.94020003;fill:#502d16;fill-opacity:1"
         d="m 0,1096.1178 91.854561,-13.3449 0,16.4645 -91.854561,0 z"
         id="path4965"
         inkscape:connector-curvature="0"
         sodipodi:nodetypes="ccccc" />
    </g>
    <g
       transform="matrix(0.89316511,0,0,1,1233.8283,0)"
       id="g4967">
      <path
         sodipodi:nodetypes="ccccccc"
         inkscape:connector-curvature="0"
         id="path4969"
         d="m -0.05436921,1076.544 c 0.31571266,-0.9578 0.97084557,-1.8137 2.43738841,-2.4263 l 86.8598488,0 c 1.345238,0.4732 2.64626,0.9773 2.859623,2.2428 l 0,23.2474 -92.15686021,0 z"
         style="opacity:1;fill:#784421;fill-opacity:1" />
      <path
         sodipodi:nodetypes="cccccc"
         inkscape:connector-curvature="0"
         id="path4971"
         d="m 2.7729673,1074.1075 85.9619977,0 c 1.504112,0.3146 3.129222,0.4477 3.292899,2.773 -26.704089,-1.3442 -91.86040549,11.4449 -91.86040549,11.4449 l -0.34076947,-11.4449 c 0.33277862,-1.249 1.00853423,-2.3265 2.94627826,-2.773 z"
         style="opacity:0.96280009;fill:#a05a2c;fill-opacity:1" />
      <path
         sodipodi:nodetypes="ccccc"
         inkscape:connector-curvature="0"
         id="path4973"
         d="m 0,1096.1178 91.854561,-13.3449 0,16.4645 -91.854561,0 z"
         style="opacity:0.94020003;fill:#502d16;fill-opacity:1" />
    </g>
    <g
       id="g4975"
       transform="matrix(0.89316511,0,0,1,1321.3405,0)">
      <path
         style="opacity:1;fill:#784421;fill-opacity:1"
         d="m -0.05436921,1076.544 c 0.31571266,-0.9578 0.97084557,-1.8137 2.43738841,-2.4263 l 86.8598488,0 c 1.345238,0.4732 2.64626,0.9773 2.859623,2.2428 l 0,23.2474 -92.15686021,0 z"
         id="path4977"
         inkscape:connector-curvature="0"
         sodipodi:nodetypes="ccccccc" />
      <path
         style="opacity:0.96280009;fill:#a05a2c;fill-opacity:1"
         d="m 2.7729673,1074.1075 85.9619977,0 c 1.504112,0.3146 3.129222,0.4477 3.292899,2.773 -26.704089,-1.3442 -91.86040549,11.4449 -91.86040549,11.4449 l -0.34076947,-11.4449 c 0.33277862,-1.249 1.00853423,-2.3265 2.94627826,-2.773 z"
         id="path4979"
         inkscape:connector-curvature="0"
         sodipodi:nodetypes="cccccc" />
      <path
         style="opacity:0.94020003;fill:#502d16;fill-opacity:1"
         d="m 0,1096.1178 91.854561,-13.3449 0,16.4645 -91.854561,0 z"
         id="path4981"
         inkscape:connector-curvature="0"
         sodipodi:nodetypes="ccccc" />
    </g>
    <g
       transform="matrix(0.89316511,0,0,1,1409.8344,0)"
       id="g4983">
      <path
         sodipodi:nodetypes="ccccccc"
         inkscape:connector-curvature="0"
         id="path4985"
         d="m -0.05436921,1076.544 c 0.31571266,-0.9578 0.97084557,-1.8137 2.43738841,-2.4263 l 86.8598488,0 c 1.345238,0.4732 2.64626,0.9773 2.859623,2.2428 l 0,23.2474 -92.15686021,0 z"
         style="opacity:1;fill:#784421;fill-opacity:1" />
      <path
         sodipodi:nodetypes="cccccc"
         inkscape:connector-curvature="0"
         id="path4987"
         d="m 2.7729673,1074.1075 85.9619977,0 c 1.504112,0.3146 3.129222,0.4477 3.292899,2.773 -26.704089,-1.3442 -91.86040549,11.4449 -91.86040549,11.4449 l -0.34076947,-11.4449 c 0.33277862,-1.249 1.00853423,-2.3265 2.94627826,-2.773 z"
         style="opacity:0.96280009;fill:#a05a2c;fill-opacity:1" />
      <path
         sodipodi:nodetypes="ccccc"
         inkscape:connector-curvature="0"
         id="path4989"
         d="m 0,1096.1178 91.854561,-13.3449 0,16.4645 -91.854561,0 z"
         style="opacity:0.94020003;fill:#502d16;fill-opacity:1" />
    </g>
    <g
       id="g4991"
       transform="matrix(0.89316511,0,0,1,1497.3997,0)">
      <path
         style="opacity:1;fill:#784421;fill-opacity:1"
         d="m -0.05436921,1076.544 c 0.31571266,-0.9578 0.97084557,-1.8137 2.43738841,-2.4263 l 86.8598488,0 c 1.345238,0.4732 2.64626,0.9773 2.859623,2.2428 l 0,23.2474 -92.15686021,0 z"
         id="path4993"
         inkscape:connector-curvature="0"
         sodipodi:nodetypes="ccccccc" />
      <path
         style="opacity:0.96280009;fill:#a05a2c;fill-opacity:1"
         d="m 2.7729673,1074.1075 85.9619977,0 c 1.504112,0.3146 3.129222,0.4477 3.292899,2.773 -26.704089,-1.3442 -91.86040549,11.4449 -91.86040549,11.4449 l -0.34076947,-11.4449 c 0.33277862,-1.249 1.00853423,-2.3265 2.94627826,-2.773 z"
         id="path4995"
         inkscape:connector-curvature="0"
         sodipodi:nodetypes="cccccc" />
      <path
         style="opacity:0.94020003;fill:#502d16;fill-opacity:1"
         d="m 0,1096.1178 91.854561,-13.3449 0,16.4645 -91.854561,0 z"
         id="path4997"
         inkscape:connector-curvature="0"
         sodipodi:nodetypes="ccccc" />
    </g>
    <g
       transform="matrix(0.89316511,0,0,1,1586.7162,0)"
       id="g4999">
      <path
         sodipodi:nodetypes="ccccccc"
         inkscape:connector-curvature="0"
         id="path5001"
         d="m -0.05436921,1076.544 c 0.31571266,-0.9578 0.97084557,-1.8137 2.43738841,-2.4263 l 86.8598488,0 c 1.345238,0.4732 2.64626,0.9773 2.859623,2.2428 l 0,23.2474 -92.15686021,0 z"
         style="opacity:1;fill:#784421;fill-opacity:1" />
      <path
         sodipodi:nodetypes="cccccc"
         inkscape:connector-curvature="0"
         id="path5003"
         d="m 2.7729673,1074.1075 85.9619977,0 c 1.504112,0.3146 3.129222,0.4477 3.292899,2.773 -26.704089,-1.3442 -91.86040549,11.4449 -91.86040549,11.4449 l -0.34076947,-11.4449 c 0.33277862,-1.249 1.00853423,-2.3265 2.94627826,-2.773 z"
         style="opacity:0.96280009;fill:#a05a2c;fill-opacity:1" />
      <path
         sodipodi:nodetypes="ccccc"
         inkscape:connector-curvature="0"
         id="path5005"
         d="m 0,1096.1178 91.854561,-13.3449 0,16.4645 -91.854561,0 z"
         style="opacity:0.94020003;fill:#502d16;fill-opacity:1" />
    </g>
    <g
       id="g5015"
       transform="matrix(0.89316511,0,0,1,1674.7579,0)">
      <path
         style="opacity:1;fill:#784421;fill-opacity:1"
         d="m -0.05436921,1076.544 c 0.31571266,-0.9578 0.97084557,-1.8137 2.43738841,-2.4263 l 86.8598488,0 c 1.345238,0.4732 2.64626,0.9773 2.859623,2.2428 l 0,23.2474 -92.15686021,0 z"
         id="path5017"
         inkscape:connector-curvature="0"
         sodipodi:nodetypes="ccccccc" />
      <path
         style="opacity:0.96280009;fill:#a05a2c;fill-opacity:1"
         d="m 2.7729673,1074.1075 85.9619977,0 c 1.504112,0.3146 3.129222,0.4477 3.292899,2.773 -26.704089,-1.3442 -91.86040549,11.4449 -91.86040549,11.4449 l -0.34076947,-11.4449 c 0.33277862,-1.249 1.00853423,-2.3265 2.94627826,-2.773 z"
         id="path5019"
         inkscape:connector-curvature="0"
         sodipodi:nodetypes="cccccc" />
      <path
         style="opacity:0.94020003;fill:#502d16;fill-opacity:1"
         d="m 0,1096.1178 91.854561,-13.3449 0,16.4645 -91.854561,0 z"
         id="path5021"
         inkscape:connector-curvature="0"
         sodipodi:nodetypes="ccccc" />
    </g>
    <g
       transform="matrix(0.89316511,0,0,1,1763.4929,0)"
       id="g5023">
      <path
         sodipodi:nodetypes="ccccccc"
         inkscape:connector-curvature="0"
         id="path5025"
         d="m -0.05436921,1076.544 c 0.31571266,-0.9578 0.97084557,-1.8137 2.43738841,-2.4263 l 86.8598488,0 c 1.345238,0.4732 2.64626,0.9773 2.859623,2.2428 l 0,23.2474 -92.15686021,0 z"
         style="opacity:1;fill:#784421;fill-opacity:1" />
      <path
         sodipodi:nodetypes="cccccc"
         inkscape:connector-curvature="0"
         id="path5027"
         d="m 2.7729673,1074.1075 85.9619977,0 c 1.504112,0.3146 3.129222,0.4477 3.292899,2.773 -26.704089,-1.3442 -91.86040549,11.4449 -91.86040549,11.4449 l -0.34076947,-11.4449 c 0.33277862,-1.249 1.00853423,-2.3265 2.94627826,-2.773 z"
         style="opacity:0.96280009;fill:#a05a2c;fill-opacity:1" />
      <path
         sodipodi:nodetypes="ccccc"
         inkscape:connector-curvature="0"
         id="path5029"
         d="m 0,1096.1178 91.854561,-13.3449 0,16.4645 -91.854561,0 z"
         style="opacity:0.94020003;fill:#502d16;fill-opacity:1" />
    </g>
    <g
       id="g5031"
       transform="matrix(0.76544893,0,0,1,1851.5125,0)">
      <path
         style="opacity:1;fill:#784421;fill-opacity:1"
         d="m -0.05436921,1076.544 c 0.31571266,-0.9578 0.97084557,-1.8137 2.43738841,-2.4263 l 86.8598488,0 c 1.345238,0.4732 2.64626,0.9773 2.859623,2.2428 l 0,23.2474 -92.15686021,0 z"
         id="path5033"
         inkscape:connector-curvature="0"
         sodipodi:nodetypes="ccccccc" />
      <path
         style="opacity:0.96280009;fill:#a05a2c;fill-opacity:1"
         d="m 2.7729673,1074.1075 85.9619977,0 c 1.504112,0.3146 3.129222,0.4477 3.292899,2.773 -26.704089,-1.3442 -91.86040549,11.4449 -91.86040549,11.4449 l -0.34076947,-11.4449 c 0.33277862,-1.249 1.00853423,-2.3265 2.94627826,-2.773 z"
         id="path5035"
         inkscape:connector-curvature="0"
         sodipodi:nodetypes="cccccc" />
      <path
         style="opacity:0.94020003;fill:#502d16;fill-opacity:1"
         d="m 0,1096.1178 91.854561,-13.3449 0,16.4645 -91.854561,0 z"
         id="path5037"
         inkscape:connector-curvature="0"
         sodipodi:nodetypes="ccccc" />
    </g>
    <rect
       y="1127.0588"
       x="-1.9607843"
       height="146.26077"
       width="1923.5294"
       id="rect5041"
       style="opacity:0.73959997;fill:#241f1c;fill-opacity:1" />
    <rect
       style="opacity:1;fill:#241f1c;fill-opacity:1"
       id="rect5043"
       width="1923.5294"
       height="150.18234"
       x="-1.9607843"
       y="1207.4509" />
  </g>
</svg>
